<svg width="64" height="64" viewBox="0 0 64 64" fill="none" xmlns="http://www.w3.org/2000/svg">
  <rect width="64" height="64" rx="16" fill="#09090b"/>
  <rect x="1" y="1" width="62" height="62" rx="15" stroke="#27272a" stroke-width="2"/>
  <path
    fill="#ffffff"
    fill-rule="evenodd"
    clip-rule="evenodd"
    d="M31.995 5.25 C34.258 5.25 36.326 6.529 37.339 8.553 L40.683 15.241 C41.237 16.349 42.147 17.239 43.267 17.767 L50.023 20.951 C52.072 21.916 53.4 23.954 53.45 26.217 C53.5 28.48 52.264 30.574 50.26 31.629 L43.653 35.106 C42.558 35.682 41.677 36.592 41.137 37.706 L37.872 44.443 C36.884 46.481 34.832 47.786 32.568 47.807 C30.304 47.828 28.228 46.561 27.202 44.542 L23.823 37.891 C23.263 36.789 22.348 35.904 21.225 35.383 L14.452 32.234 C12.398 31.279 11.06 29.247 11 26.984 C10.94 24.721 12.167 22.622 14.166 21.558 L20.756 18.051 C21.847 17.47 22.723 16.556 23.258 15.44 L26.49 8.687 C27.47 6.64 29.733 5.25 31.995 5.25 Z M32.027 13.292 C30.918 13.292 29.9 13.925 29.413 14.921 L27.434 18.969 C26.374 21.138 24.659 22.912 22.527 24.045 L18.525 26.172 C17.548 26.692 16.948 27.724 16.976 28.831 C17.005 29.938 17.658 30.938 18.66 31.404 L22.767 33.315 C24.958 34.333 26.741 36.057 27.835 38.208 L29.887 42.244 C30.388 43.23 31.406 43.847 32.513 43.837 C33.62 43.827 34.627 43.191 35.11 42.195 L37.091 38.106 C38.146 35.931 39.857 34.151 41.986 33.031 L45.992 30.923 C46.972 30.407 47.577 29.378 47.553 28.271 C47.528 27.164 46.879 26.161 45.879 25.691 L41.783 23.76 C39.598 22.73 37.824 20.998 36.742 18.841 L34.72 14.808 C34.226 13.822 33.132 13.292 32.027 13.292 Z M32.246 21.021 C38.298 21.021 43.204 25.927 43.204 31.979 C43.204 38.031 38.298 42.937 32.246 42.937 C26.194 42.937 21.288 38.031 21.288 31.979 C21.288 25.927 26.194 21.021 32.246 21.021 Z M32.246 27.276 C29.649 27.276 27.543 29.382 27.543 31.979 C27.543 34.576 29.649 36.682 32.246 36.682 C34.843 36.682 36.949 34.576 36.949 31.979 C36.949 29.382 34.843 27.276 32.246 27.276 Z"
  />
</svg>
